PathFileType	4	(X/Y/Z)	/Users/itak/Documents/Research/Walk-IL/dataset/trc/00273_00010.trc
DataRate	CameraRate	NumFrames	NumMarkers	Units	OrigDataRate	OrigDataStartFrame	OrigNumFrames
100.000000	100.000000	4	53	mm	100.000000	63	505
Frame#	Time	RPSI			LPSI			L3			STRN			T10			C7			CLAV			RBAK			LBAK			LSHO			LUPA			LAEL			LAOL			LWTS			LWPS			LFRA			LIFD			LHPS			LHTS			RSHO			RUPA			RAEL			RAOL			RWTS			RWPS			RFRA			RIFD			RHTS			RHPS			RBHD			LFHD			RFHD			LBHD			LHIP			RHIP			RASI			LKNE			LTHI			LANK			LTIP			LTOE			LMT1			LMT5			LHEE			RKNE			RTHI			RANK			RTIP			RTOE			RMT1			RMT5			RHEE			LASI			
		X1	Y1	Z1	X2	Y2	Z2	X3	Y3	Z3	X4	Y4	Z4	X5	Y5	Z5	X6	Y6	Z6	X7	Y7	Z7	X8	Y8	Z8	X9	Y9	Z9	X10	Y10	Z10	X11	Y11	Z11	X12	Y12	Z12	X13	Y13	Z13	X14	Y14	Z14	X15	Y15	Z15	X16	Y16	Z16	X17	Y17	Z17	X18	Y18	Z18	X19	Y19	Z19	X20	Y20	Z20	X21	Y21	Z21	X22	Y22	Z22	X23	Y23	Z23	X24	Y24	Z24	X25	Y25	Z25	X26	Y26	Z26	X27	Y27	Z27	X28	Y28	Z28	X29	Y29	Z29	X30	Y30	Z30	X31	Y31	Z31	X32	Y32	Z32	X33	Y33	Z33	X34	Y34	Z34	X35	Y35	Z35	X36	Y36	Z36	X37	Y37	Z37	X38	Y38	Z38	X39	Y39	Z39	X40	Y40	Z40	X41	Y41	Z41	X42	Y42	Z42	X43	Y43	Z43	X44	Y44	Z44	X45	Y45	Z45	X46	Y46	Z46	X47	Y47	Z47	X48	Y48	Z48	X49	Y49	Z49	X50	Y50	Z50	X51	Y51	Z51	X52	Y52	Z52	X53	Y53	Z53	

64	0.63	842.09765625	990.5271606445312	109.2971725463867	857.4360961914062	983.1400146484375	-64.74871063232422	869.0696411132812	1063.485595703125	24.47262573242188	1124.648681640625	1241.41796875	37.88097763061523	857.6172485351562	1180.833374023438	25.62548065185547	905.1026611328125	1423.505493164062	7.99893045425415	1064.07421875	1343.644897460938	28.2277774810791	846.8592529296875	1290.965698242188	85.34602355957031	897.0969848632812	1385.9521484375	-95.03675079345703	990.4703979492188	1392.851806640625	-140.6819000244141	955.1231689453125	1278.265014648438	-216.5964660644531	941.247314453125	1076.848754882812	-232.8215942382812	881.756591796875	1066.242553710938	-169.2288513183594	1031.197509765625	860.1563110351562	-200.3261566162109	989.5901489257812	847.8515014648438	-257.5666809082031	954.3214721679688	974.7031860351562	-244.6667633056641	1040.706176757812	674.381591796875	-200.9457397460938	997.89208984375	759.6771240234375	-257.5720520019531	1056.376098632812	763.3390502929688	-226.8577728271484	963.2844848632812	1407.248901367188	172.1938781738281	951.258544921875	1352.55859375	240.2705535888672	925.3970336914062	1093.236694335938	306.4230041503906	896.0018920898438	1078.81689453125	215.1155548095703	1032.75048828125	870.7276000976562	279.5460815429688	983.1656494140625	868.89599609375	348.455810546875	947.5833740234375	1026.98681640625	325.1618041992188	1042.866333007812	688.0093383789062	287.9857177734375	1064.40625	758.0230712890625	306.4305419921875	1011.974365234375	758.2300415039062	353.2499389648438	915.0860595703125	1575.758544921875	77.91648101806641	1084.778930664062	1630.955200195312	-36.39194107055664	1081.27685546875	1630.610473632812	56.19118881225586	923.2493286132812	1566.9091796875	-67.68807220458984	937.823974609375	938.2587890625	-153.8075408935547	933.9319458007812	944.4417724609375	221.0692749023438	1059.6015625	952.115234375	161.0491790771484	1055.525024414062	480.328369140625	-134.7605743408203	1032.212036132812	620.3389892578125	-151.0722961425781	929.1442260742188	41.63432693481445	-134.5617980957031	987.3114013671875	257.9674072265625	-147.8936767578125	1138.240112304688	26.46295356750488	-83.82259368896484	1068.739013671875	20.76459503173828	-41.32950592041016	1050.678833007812	33.264404296875	-151.3939971923828	884.804443359375	37.63917922973633	-74.58313751220703	1014.216247558594	474.40966796875	183.6878509521484	1015.056213378906	737.9422607421875	222.3598785400391	927.9676513671875	35.75212097167969	149.7255554199219	1020.755065917969	348.0553283691406	168.2644805908203	1125.910034179688	34.04664611816406	105.5170364379883	1069.465942382812	30.81758880615234	63.49991989135742	1031.716552734375	27.25362205505371	174.9447479248047	877.7255249023438	31.34595108032227	99.47018432617188	1066.593994140625	952.1978759765625	-90.77590942382812	
65	0.64	840.1219482421875	990.6238403320312	111.0491104125977	854.908447265625	983.0484619140625	-63.09304428100586	867.1651000976562	1063.719970703125	26.33645629882812	1123.543823242188	1240.727661132812	39.32094192504883	856.2757568359375	1181.070922851562	27.67303466796875	904.5916137695312	1423.611206054688	9.974647521972656	1063.325927734375	1343.166259765625	29.80773544311523	846.233642578125	1291.201171875	87.49034118652344	896.1680297851562	1386.079223632812	-93.06544494628906	989.44287109375	1392.608520507812	-138.9336242675781	953.4808959960938	1278.21875	-214.7167053222656	938.7625732421875	1076.9228515625	-231.1302337646484	879.3535766601562	1066.465454101562	-167.4289093017578	1028.377563476562	860.1406860351562	-199.1529998779297	986.64306640625	847.959716796875	-256.3180541992188	951.5639038085938	974.8198852539062	-243.141357421875	1037.834716796875	674.3607177734375	-200.0354766845703	994.791015625	759.776123046875	-256.4380187988281	1053.368286132812	763.3447875976562	-225.8678436279297	963.0654296875	1407.133178710938	173.9689178466797	951.1058349609375	1352.470336914062	242.1162719726562	924.5494384765625	1093.04541015625	308.1321716308594	894.8514404296875	1078.869873046875	217.1366577148438	1031.552490234375	870.6048583984375	281.1560668945312	982.227783203125	868.82861328125	350.2357788085938	946.703125	1026.945190429688	327.0323486328125	1041.700317382812	687.8286743164062	289.6651916503906	1063.216186523438	757.89306640625	307.9173889160156	1010.9482421875	758.1382446289062	354.92529296875	914.25439453125	1575.392211914062	79.5679931640625	1083.569091796875	1631.054443359375	-35.11626052856445	1080.228393554688	1630.725463867188	57.5008659362793	922.1842651367188	1566.487060546875	-66.06855010986328	935.6830444335938	937.9635620117188	-152.0886077880859	931.9317626953125	944.3893432617188	222.7529907226562	1057.548706054688	951.7341918945312	162.5689239501953	1057.357299804688	480.7152404785156	-133.9933166503906	1032.335205078125	620.500244140625	-149.9506988525391	929.4252319335938	42.46686172485352	-134.6029968261719	988.25830078125	258.69970703125	-147.6169586181641	1138.267578125	26.32376861572266	-83.82099914550781	1068.793090820312	20.83780860900879	-41.43913269042969	1050.853149414062	33.37223815917969	-151.4248962402344	884.9978637695312	38.74581527709961	-74.63104248046875	1012.769714355469	474.4053344726562	184.6343841552734	1013.130310058594	737.87744140625	223.6750793457031	927.9405517578125	35.71901702880859	149.7497711181641	1019.674926757812	348.0655822753906	168.8925170898438	1125.8662109375	34.1021842956543	105.5351791381836	1069.445068359375	30.8308219909668	63.51113510131836	1031.699584960938	27.25283050537109	174.9505004882812	877.6919555664062	31.25759124755859	99.45771789550781	1064.51806640625	951.8789672851562	-89.16555023193359	
66	0.65	838.035400390625	990.7182006835938	112.8536911010742	852.2781982421875	982.9462890625	-61.3613395690918	865.2086181640625	1063.999755859375	28.28166770935059	1122.41259765625	1239.993041992188	40.75417327880859	854.8648681640625	1181.348876953125	29.77064514160156	904.1071166992188	1423.74169921875	12.01059722900391	1062.584716796875	1342.659545898438	31.40257835388184	845.6163330078125	1291.467407226562	89.69868469238281	895.2349243164062	1386.242919921875	-91.04252624511719	988.4083862304688	1392.36669921875	-137.1465454101562	951.8377075195312	1278.1806640625	-212.7967529296875	936.2808227539062	1076.997802734375	-229.4129943847656	876.9210205078125	1066.695434570312	-165.6431732177734	1025.46044921875	860.0929565429688	-197.8903198242188	983.6366577148438	848.0719604492188	-255.0243530273438	948.781005859375	974.9417724609375	-241.5984497070312	1034.739501953125	674.3311767578125	-199.0680084228516	991.5816650390625	759.8567504882812	-255.2404937744141	1050.233154296875	763.3084716796875	-224.7798767089844	962.9134521484375	1407.017333984375	175.7869262695312	951.0114135742188	1352.380981445312	243.9987945556641	923.70947265625	1092.812866210938	309.8274536132812	893.7055053710938	1078.92138671875	219.1781616210938	1030.3134765625	870.469482421875	282.7498168945312	981.2749633789062	868.75244140625	352.01025390625	945.830810546875	1026.890869140625	328.9183654785156	1040.499389648438	687.6494140625	291.31494140625	1062.01171875	757.7523193359375	309.4006042480469	1009.911376953125	758.0394897460938	356.5916442871094	913.4359130859375	1575.001098632812	81.26934814453125	1082.348388671875	1631.172485351562	-33.8084831237793	1079.179565429688	1630.843872070312	58.84369659423828	921.1131591796875	1566.05859375	-64.39389801025391	933.5401611328125	937.6492919921875	-150.28759765625	929.8952026367188	944.3300170898438	224.4402008056641	1055.436157226562	951.3492431640625	164.0454864501953	1059.351318359375	481.2255249023438	-133.3427581787109	1032.497924804688	620.7315063476562	-148.9262237548828	929.760986328125	43.48633575439453	-134.681884765625	989.3156127929688	259.5906066894531	-147.397216796875	1138.313598632812	26.21667289733887	-83.82322692871094	1068.863525390625	20.93509101867676	-41.57571029663086	1051.091186523438	33.52140045166016	-151.4710845947266	885.2529296875	40.08971786499023	-74.72640228271484	1011.221740722656	474.4064025878906	185.60009765625	1011.120178222656	737.8214111328125	224.9653167724609	927.9381713867188	35.68767166137695	149.7872009277344	1018.507995605469	348.0859680175781	169.5545654296875	1125.8212890625	34.16839599609375	105.561767578125	1069.425415039062	30.84966659545898	63.53184509277344	1031.685668945312	27.26448059082031	174.9618530273438	877.656982421875	31.1733226776123	99.44240570068359	1062.327758789062	951.568359375	-87.60577392578125	
67	0.66	835.8359985351562	990.8041381835938	114.7030792236328	849.6007080078125	982.8236694335938	-59.54081726074219	863.20068359375	1064.319702148438	30.30260276794434	1121.259887695312	1239.216552734375	42.17838287353516	853.3927612304688	1181.6728515625	31.92031669616699	903.6505737304688	1423.900390625	14.1066312789917	1061.84765625	1342.12451171875	33.00900650024414	845.0001220703125	1291.777587890625	91.96621704101562	894.300537109375	1386.443603515625	-88.96601104736328	987.3678588867188	1392.129760742188	-135.3192901611328	950.1972045898438	1278.154174804688	-210.8395080566406	933.7992553710938	1077.077270507812	-227.6697845458984	874.4573364257812	1066.940307617188	-163.8689270019531	1022.445190429688	860.0293579101562	-196.5408477783203	980.5679321289062	848.1904296875	-253.6845855712891	945.968994140625	975.071044921875	-240.0350494384766	1031.407104492188	674.2975463867188	-198.0221252441406	988.2654418945312	759.925048828125	-253.9806213378906	1046.968505859375	763.2238159179688	-223.5927886962891	962.8334350585938	1406.905395507812	177.6443023681641	950.9803466796875	1352.296630859375	245.9152069091797	922.8829956054688	1092.567993164062	311.5338134765625	892.5585327148438	1078.984985351562	221.2295989990234	1029.0322265625	870.332763671875	284.3289794921875	980.2982788085938	868.676025390625	353.7758483886719	944.9635009765625	1026.833374023438	330.8148803710938	1039.275390625	687.4822998046875	292.9449768066406	1060.785766601562	757.6105346679688	310.8817443847656	1008.851806640625	757.942626953125	358.2467956542969	912.6339721679688	1574.5791015625	83.01552581787109	1081.116821289062	1631.303100585938	-32.47047805786133	1078.129150390625	1630.962890625	60.21498489379883	920.0355834960938	1565.618896484375	-62.66445922851562	931.1909790039062	937.3377075195312	-148.4644317626953	927.8250122070312	944.2642822265625	226.1289520263672	1053.263916015625	950.9652709960938	165.4744567871094	1061.507080078125	481.8867797851562	-132.831298828125	1032.693969726562	621.0534057617188	-148.0214080810547	930.1678466796875	44.69112396240234	-134.8097381591797	990.5010375976562	260.6572265625	-147.2561340332031	1138.377685546875	26.17435646057129	-83.82760620117188	1068.9560546875	21.07991027832031	-41.74179077148438	1051.405639648438	33.72607040405273	-151.5380249023438	885.5775756835938	41.67871856689453	-74.89169311523438	1009.5771484375	474.4104919433594	186.5700225830078	1009.05810546875	737.780517578125	226.2357330322266	927.9578247070312	35.66461944580078	149.8393096923828	1017.270202636719	348.1257934570312	170.2435913085938	1125.778442382812	34.24350738525391	105.5950546264648	1069.4033203125	30.87250709533691	63.56021881103516	1031.675048828125	27.29144287109375	174.9800109863281	877.6235961914062	31.09496879577637	99.42644500732422	1059.995727539062	951.2763671875	-86.104736328125	
